HIERARCHY
ROOT reference
{
  OFFSET 0 0 0
  CHANNELS 6 Xposition Yposition Zposition Zrotation Xrotation Yrotation
  JOINT Hips
  {
    OFFSET -2.49316 62.9191 -85.6059
    CHANNELS 6 Xposition Yposition Zposition Zrotation Xrotation Yrotation
    JOINT Spine
    {
      OFFSET 0 7.52385 0
      CHANNELS 6 Xposition Yposition Zposition Zrotation Xrotation Yrotation
      JOINT Spine1
      {
        OFFSET 0 21.7843 0
        CHANNELS 6 Xposition Yposition Zposition Zrotation Xrotation Yrotation
        JOINT Neck
        {
          OFFSET 0 21.6948 1.97225
          CHANNELS 6 Xposition Yposition Zposition Zrotation Xrotation Yrotation
          JOINT Head
          {
            OFFSET 0 12.8456 -1.83509
            CHANNELS 6 Xposition Yposition Zposition Zrotation Xrotation Yrotation
            End Site
            {
              OFFSET 0 22.9386 0
            }
          }
        }
        JOINT LeftShoulder
        {
          OFFSET 3.65748 19.7052 -0.211895
          CHANNELS 6 Xposition Yposition Zposition Zrotation Xrotation Yrotation
          JOINT LeftArm
          {
            OFFSET 11.1953 0 0
            CHANNELS 6 Xposition Yposition Zposition Zrotation Xrotation Yrotation
            JOINT LeftForeArm
            {
              OFFSET 29.6607 0 0
              CHANNELS 6 Xposition Yposition Zposition Zrotation Xrotation Yrotation
              JOINT LeftHand
              {
                OFFSET 23.3476 0 0
                CHANNELS 6 Xposition Yposition Zposition Zrotation Xrotation Yrotation
                End Site
                {
                  OFFSET 13.7631 0 0
                }
              }
            }
          }
        }
        JOINT RightShoulder
        {
          OFFSET -3.68053 19.7052 -0.211895
          CHANNELS 6 Xposition Yposition Zposition Zrotation Xrotation Yrotation
          JOINT RightArm
          {
            OFFSET -11.1953 0 0
            CHANNELS 6 Xposition Yposition Zposition Zrotation Xrotation Yrotation
            JOINT RightForeArm
            {
              OFFSET -29.6607 0 0
              CHANNELS 6 Xposition Yposition Zposition Zrotation Xrotation Yrotation
              JOINT RightHand
              {
                OFFSET -23.3476 0 0
                CHANNELS 6 Xposition Yposition Zposition Zrotation Xrotation Yrotation
                End Site
                {
                  OFFSET -13.7631 0 0
                }
              }
            }
          }
        }
      }
    }
    JOINT LeftUpLeg
    {
      OFFSET 9.17543 0 0
      CHANNELS 6 Xposition Yposition Zposition Zrotation Xrotation Yrotation
      JOINT LeftLeg
      {
        OFFSET 0 -39.1216 0
        CHANNELS 6 Xposition Yposition Zposition Zrotation Xrotation Yrotation
        JOINT LeftFoot
        {
          OFFSET 0 -35.3569 0
          CHANNELS 6 Xposition Yposition Zposition Zrotation Xrotation Yrotation
          JOINT LeftToeBase
          {
            OFFSET 0 -5.96403 13.7631
            CHANNELS 6 Xposition Yposition Zposition Zrotation Xrotation Yrotation
            End Site
            {
              OFFSET 0 0 3.67017
            }
          }
        }
      }
    }
    JOINT RightUpLeg
    {
      OFFSET -9.17543 0 0
      CHANNELS 6 Xposition Yposition Zposition Zrotation Xrotation Yrotation
      JOINT RightLeg
      {
        OFFSET 0 -39.1216 0
        CHANNELS 6 Xposition Yposition Zposition Zrotation Xrotation Yrotation
        JOINT RightFoot
        {
          OFFSET 0 -35.3569 0
          CHANNELS 6 Xposition Yposition Zposition Zrotation Xrotation Yrotation
          JOINT RightToeBase
          {
            OFFSET 0 -5.96403 13.7631
            CHANNELS 6 Xposition Yposition Zposition Zrotation Xrotation Yrotation
            End Site
            {
              OFFSET 0 0 3.67017
            }
          }
        }
      }
    }
  }
}
MOTION
Frames:	11
Frame Time:	0.004
0 0 0 0 0 -0 -10.855 71.6213 -183.502 -3.67905 -8.7949 -22.654 1.42109e-014 7.52385 0 0.454704 0.195868 1.08852 0 21.7843 0 -6.91786 15.6572 2.04154 0 21.6948 1.97225 -2.864 16.4753 5.4564 1.42109e-014 12.8456 -1.83509 -3.77689 7.18164 5.37228 3.65748 19.7052 -0.211895 -10.5569 18.4154 -1.93031 11.1953 0 0 -52.2201 40.1155 -8.11259 29.6607 2.84217e-014 0 17.6441 -22.9678 -30.098 23.3476 0 -1.42109e-014 4.9149 -18.1894 7.45759 -3.68053 19.7052 -0.211895 4.30574 20.9632 -1.8332 -11.1953 0 2.84217e-014 38.3114 52.1217 34.4558 -29.6607 -2.84217e-014 0 -12.056 -16.9337 28.8265 -23.3476 7.10543e-015 0 1.75725 -13.9335 0.165387 9.17543 1.42109e-014 -2.84217e-014 14.0403 -13.9843 1.63777 0 -39.1216 -1.42109e-014 -15.2134 35.3022 13.7814 3.55271e-015 -35.3569 2.84217e-014 2.28953 -15.6244 13.0196 0 -5.96403 13.7631 4.72114e-016 0 1.98785e-016 -9.17543 0 -2.84217e-014 -13.2517 22.845 11.5254 1.42109e-014 -39.1216 2.84217e-014 2.01644 15.9198 7.6711 0 -35.3569 2.84217e-014 5.91449 -21.0276 -14.2133 1.42109e-014 -5.96403 13.7631 -7.95139e-016 -1.59028e-015 3.18055e-015 
0 0 0 0 0 -0 -10.7651 71.6332 -183.254 -3.86529 -8.90199 -22.7768 0 7.52385 -2.84217e-014 0.488793 0.332229 0.993458 1.42109e-014 21.7843 0 -6.9109 15.7407 1.95137 1.42109e-014 21.6948 1.97225 -2.90862 16.5418 5.59855 0 12.8456 -1.83509 -3.80878 7.17068 5.51554 3.65748 19.7052 -0.211895 -10.5871 18.3888 -1.89859 11.1953 -1.42109e-014 0 -52.1366 40.2226 -8.2172 29.6607 0 0 18.2654 -23.1504 -29.8616 23.3476 0 0 4.29362 -18.2986 7.28178 -3.68053 19.7052 -0.211895 4.2983 21.0155 -1.72092 -11.1953 1.42109e-014 0 38.4037 51.9973 34.4193 -29.6607 0 -2.84217e-014 -12.0195 -16.8485 28.6625 -23.3476 -7.10543e-015 0 1.87846 -13.8717 0.307244 9.17543 -1.42109e-014 -5.68434e-014 14.035 -13.6892 1.72899 7.10543e-015 -39.1216 0 -15.1869 35.4625 13.62 3.55271e-015 -35.3569 -2.84217e-014 2.47248 -15.9766 13.1247 0 -5.96403 13.7631 -1.65521e-032 2.38542e-015 3.97569e-016 -9.17543 -1.42109e-014 0 -13.2961 22.9893 11.5342 0 -39.1216 0 2.03444 16.0072 6.53057 0 -35.3569 -2.84217e-014 6.55463 -20.5424 -12.9085 0 -5.96403 13.7631 3.53113e-031 3.18055e-015 -6.36111e-015 
0 0 0 0 0 -0 -10.6101 71.6809 -183.026 -3.80759 -8.79349 -22.9245 0 7.52385 2.84217e-014 0.403845 0.15418 0.989692 -1.42109e-014 21.7843 0 -6.85514 15.8656 1.94657 0 21.6948 1.97225 -2.94058 16.5951 5.66875 0 12.8456 -1.83509 -3.87243 7.17836 5.58226 3.65748 19.7052 -0.211895 -10.6319 18.3809 -2.04435 11.1953 1.42109e-014 0 -51.9772 40.0317 -8.38616 29.6607 0 0 18.134 -23.2544 -29.8069 23.3476 1.42109e-014 1.42109e-014 5.05414 -18.3974 7.41775 -3.68053 19.7052 -0.211895 4.32467 21.0574 -1.81902 -11.1953 1.42109e-014 0 38.2143 52.0305 34.5618 -29.6607 0 0 -11.9624 -16.8683 28.6082 -23.3476 7.10543e-015 -2.84217e-014 1.40644 -13.9141 0.235637 9.17543 0 2.84217e-014 13.7891 -13.6287 1.686 0 -39.1216 0 -15.1009 35.4118 13.7355 -3.55271e-015 -35.3569 -2.84217e-014 2.62011 -16.1358 13.144 0 -5.96403 13.7631 8.69683e-017 -1.59028e-015 -1.98785e-016 -9.17543 0 0 -13.5445 22.7289 11.4849 0 -39.1216 2.84217e-014 2.10997 16.3183 6.50472 -7.10543e-015 -35.3569 0 6.73167 -20.196 -12.7406 0 -5.96403 13.7631 7.95139e-016 -1.59028e-015 -0 
0 0 0 0 0 -0 -10.4869 71.714 -182.793 -3.84749 -8.77603 -23.0428 -1.42109e-014 7.52385 2.84217e-014 0.387656 0.102237 0.933642 0 21.7843 0 -6.87317 15.9784 1.89979 1.42109e-014 21.6948 1.97225 -2.92592 16.6544 5.76346 1.42109e-014 12.8456 -1.83509 -3.97509 7.16875 5.67077 3.65748 19.7052 -0.211895 -10.628 18.3311 -2.09226 11.1953 2.84217e-014 0 -51.8637 39.9069 -8.48992 29.6607 -2.84217e-014 0 18.3923 -23.2874 -29.7174 23.3476 2.84217e-014 -1.42109e-014 5.47231 -18.3513 7.46406 -3.68053 19.7052 -0.211895 4.29291 21.0355 -1.79921 -11.1953 -1.42109e-014 -2.84217e-014 38.4056 51.9022 34.4524 -29.6607 1.42109e-014 0 -11.849 -16.8113 28.5461 -23.3476 7.10543e-015 0 1.74273 -13.8872 0.472546 9.17543 -1.42109e-014 0 13.6432 -13.4894 1.58802 -7.10543e-015 -39.1216 1.42109e-014 -15.1116 35.4301 14.0677 -3.55271e-015 -35.3569 0 2.58141 -16.3508 12.9733 0 -5.96403 13.7631 1.86361e-016 0 -0 -9.17543 -1.42109e-014 0 -13.6968 22.6553 11.4466 0 -39.1216 0 2.13574 16.6694 7.61937 7.10543e-015 -35.3569 2.84217e-014 6.50825 -20.0605 -13.8091 0 -5.96403 13.7631 8.82781e-032 -1.59028e-015 3.18055e-015 
0 0 0 0 0 -0 -10.3605 71.7546 -182.56 -3.88028 -8.74822 -23.1602 0 7.52385 0 0.311141 0.09171 0.896641 -1.42109e-014 21.7843 -2.84217e-014 -6.73933 15.9594 1.84264 2.84217e-014 21.6948 1.97225 -3.08615 16.8626 5.85165 1.42109e-014 12.8456 -1.83509 -3.92067 7.08992 5.75764 3.65748 19.7052 -0.211895 -10.771 18.3549 -2.22973 11.1953 0 0 -51.7349 39.8078 -8.48168 29.6607 0 0 18.3077 -23.5358 -29.7314 23.3476 -2.84217e-014 0 5.97641 -18.5775 7.84191 -3.68053 19.7052 -0.211895 4.29154 21.1193 -1.7827 -11.1953 0 0 38.4847 51.8083 34.3656 -29.6607 0 0 -11.8085 -16.7974 28.4312 -23.3476 1.42109e-014 2.84217e-014 1.68802 -13.8963 0.42989 9.17543 -1.42109e-014 -2.84217e-014 13.4874 -13.3907 1.56453 7.10543e-015 -39.1216 1.42109e-014 -15.0698 35.5381 14.0737 -3.55271e-015 -35.3569 0 2.73712 -16.5391 13.0719 -8.88178e-016 -5.96403 13.7631 -5.2181e-016 7.95139e-016 -1.98785e-016 -9.17543 0 0 -13.8482 22.5509 11.4222 -1.42109e-014 -39.1216 0 2.17998 16.9418 7.6452 7.10543e-015 -35.3569 0 6.69508 -19.7002 -13.7565 -1.42109e-014 -5.96403 13.7631 7.95139e-016 1.59028e-015 -0 
0 0 0 0 0 -0 -10.2381 71.796 -182.334 -3.91605 -8.72279 -23.275 0 7.52385 2.84217e-014 0.35033 0.137232 0.812458 1.42109e-014 21.7843 0 -6.87764 15.8962 1.77429 0 21.6948 1.97225 -3.09013 16.9237 5.96912 0 12.8456 -1.83509 -3.90613 7.12137 5.88046 3.65748 19.7052 -0.211895 -10.7225 18.3551 -2.15214 11.1953 0 0 -51.6053 39.8094 -8.59313 29.6607 0 -1.42109e-014 18.716 -23.6129 -29.5801 23.3476 -1.42109e-014 0 5.0284 -18.6563 7.41929 -3.68053 19.7052 -0.211895 4.36513 21.2061 -1.75876 -11.1953 -1.42109e-014 -2.84217e-014 38.4697 51.7728 34.4029 -29.6607 0 0 -11.7108 -16.8057 28.3735 -23.3476 -1.42109e-014 0 1.39311 -13.9375 0.31078 9.17543 -1.42109e-014 0 13.3309 -13.2515 1.43102 0 -39.1216 -1.42109e-014 -15.0787 35.538 14.2522 0 -35.3569 -2.84217e-014 2.78074 -16.732 13.0835 0 -5.96403 13.7631 -0 -7.95139e-016 -0 -9.17543 1.42109e-014 0 -13.9914 22.4542 11.4049 0 -39.1216 -2.84217e-014 2.23093 17.1798 7.58962 0 -35.3569 -2.84217e-014 6.86536 -19.3238 -13.6246 0 -5.96403 13.7631 7.95139e-016 0 -0 
0 0 0 0 0 -0 -10.1227 71.84 -182.1 -3.97534 -8.71496 -23.3906 0 7.52385 0 0.256704 0.027441 0.799274 -1.42109e-014 21.7843 0 -6.70348 16.1438 1.75106 0 21.6948 1.97225 -3.12743 16.9486 6.02619 0 12.8456 -1.83509 -3.9794 7.08338 5.93171 3.65748 19.7052 -0.211895 -10.7651 18.2622 -2.35092 11.1953 0 2.84217e-014 -51.5096 39.575 -8.67134 29.6607 0 0 18.3591 -23.7569 -29.7968 23.3476 -1.42109e-014 -2.84217e-014 6.42737 -18.7335 8.20252 -3.68053 19.7052 -0.211895 4.29217 21.2068 -1.80688 -11.1953 0 -2.84217e-014 38.5787 51.658 34.3462 -29.6607 -1.42109e-014 2.84217e-014 -11.6527 -16.8712 28.3441 -23.3476 -1.42109e-014 0 1.75265 -14.0163 0.591301 9.17543 0 -2.84217e-014 13.2032 -13.0853 1.38626 7.10543e-015 -39.1216 0 -15.0572 35.5742 14.274 7.10543e-015 -35.3569 2.84217e-014 3.04227 -16.9252 13.1941 0 -5.96403 13.7631 1.61513e-016 7.95139e-016 -3.97569e-016 -9.17543 0 0 -14.1163 22.3897 11.4659 1.42109e-014 -39.1216 2.84217e-014 2.30506 17.4213 7.47651 0 -35.3569 2.84217e-014 7.01116 -18.9254 -13.5447 0 -5.96403 13.7631 -0 0 3.18055e-015 
0 0 0 0 0 -0 -10.0069 71.8872 -181.876 -4.02911 -8.69732 -23.4999 0 7.52385 2.84217e-014 0.252199 0.043376 0.760281 0 21.7843 0 -6.7338 16.1521 1.7169 0 21.6948 1.97225 -3.10093 16.9569 6.10322 1.42109e-014 12.8456 -1.83509 -3.98691 7.2075 6.01565 3.65748 19.7052 -0.211895 -10.7077 18.2705 -2.40154 11.1953 0 0 -51.3971 39.5157 -8.79899 29.6607 0 0 18.5511 -23.9006 -29.7112 23.3476 0 0 6.21292 -18.8743 7.95086 -3.68053 19.7052 -0.211895 4.31757 21.1964 -1.84087 -11.1953 1.42109e-014 0 38.7009 51.6914 34.2534 -29.6607 0 0 -11.5938 -16.9202 28.2874 -23.3476 -7.10543e-015 0 1.51423 -14.0889 0.504932 9.17543 0 2.84217e-014 13.0655 -12.9106 1.34977 0 -39.1216 1.42109e-014 -14.988 35.547 14.3093 -3.55271e-015 -35.3569 0 3.14707 -17.1049 13.2229 0 -5.96403 13.7631 2.48481e-016 -7.95139e-016 -0 -9.17543 0 2.84217e-014 -14.2369 22.3061 11.4665 -1.42109e-014 -39.1216 0 2.36521 17.6697 7.44801 0 -35.3569 -2.84217e-014 7.15885 -18.5124 -13.4812 1.42109e-014 -5.96403 13.7631 2.38542e-015 -4.77083e-015 3.18055e-015 
0 0 0 0 0 -0 -9.88938 71.9337 -181.662 -4.06916 -8.66379 -23.6076 0 7.52385 0 0.270868 0.113725 0.70044 0 21.7843 0 -6.79384 16.055 1.65989 0 21.6948 1.97225 -3.13802 17.0249 6.20596 0 12.8456 -1.83509 -3.95471 7.22355 6.12357 3.65748 19.7052 -0.211895 -10.5414 18.1997 -2.55731 11.1953 1.42109e-014 0 -51.6014 39.2936 -8.65432 29.6607 -2.84217e-014 -2.84217e-014 18.4505 -23.971 -29.8522 23.3476 0 0 6.90665 -18.8847 8.29084 -3.68053 19.7052 -0.211895 4.34315 21.2355 -1.84983 -11.1953 0 0 38.8425 51.6754 34.17 -29.6607 1.42109e-014 0 -11.4867 -16.9168 28.1612 -23.3476 -1.42109e-014 0 1.12012 -14.1265 0.522982 9.17543 0 0 12.9289 -12.7678 1.30306 0 -39.1216 1.42109e-014 -14.959 35.5309 14.3949 0 -35.3569 0 3.29799 -17.2817 13.2589 0 -5.96403 13.7631 -6.33626e-016 0 -0 -9.17543 -1.42109e-014 0 -14.3514 22.1794 11.485 0 -39.1216 2.84217e-014 2.42545 17.9337 7.1873 0 -35.3569 0 7.35281 -18.1013 -13.2103 0 -5.96403 13.7631 7.95139e-016 0 6.36111e-015 
0 0 0 0 0 -0 -9.76513 71.9853 -181.44 -4.10642 -8.61812 -23.7262 1.42109e-014 7.52385 2.84217e-014 0.306304 0.097331 0.635281 1.42109e-014 21.7843 2.84217e-014 -6.89202 16.0677 1.60944 1.42109e-014 21.6948 1.97225 -3.13546 17.0257 6.32253 0 12.8456 -1.83509 -3.9235 7.30241 6.25026 3.65748 19.7052 -0.211895 -10.5001 18.1734 -2.53779 11.1953 -1.42109e-014 -2.84217e-014 -51.5233 39.2929 -8.71795 29.6607 2.84217e-014 -1.42109e-014 18.5995 -24.1889 -29.8772 23.3476 0 0 6.95915 -19.0588 8.37864 -3.68053 19.7052 -0.211895 4.41385 21.3278 -1.81324 -11.1953 1.42109e-014 0 38.8358 51.6156 34.1602 -29.6607 0 0 -11.4319 -17.0102 28.1044 -23.3476 0 0 1.34079 -14.2374 0.713853 9.17543 0 0 12.7398 -12.6546 1.31101 0 -39.1216 -1.42109e-014 -14.7676 35.56 14.4896 0 -35.3569 0 3.05685 -17.4255 13.1355 0 -5.96403 13.7631 -3.47873e-016 7.95139e-016 -9.93923e-017 -9.17543 0 0 -14.4554 22.0335 11.4623 -1.42109e-014 -39.1216 0 2.44376 18.2333 7.12887 0 -35.3569 0 7.55332 -17.689 -13.1082 0 -5.96403 13.7631 -0 -4.77083e-015 -0 
0 0 0 0 0 -0 -9.6499 72.0373 -181.222 -4.16339 -8.56907 -23.8257 1.42109e-014 7.52385 0 0.188377 -0.038659 0.640503 0 21.7843 0 -6.63845 16.3304 1.59394 0 21.6948 1.97225 -3.13773 16.9283 6.36716 0 12.8456 -1.83509 -4.04764 7.43005 6.29443 3.65748 19.7052 -0.211895 -10.5748 18.0455 -2.75329 11.1953 -1.42109e-014 -2.84217e-014 -51.4091 39.1296 -8.7933 29.6607 -2.84217e-014 0 18.8631 -24.2095 -29.8134 23.3476 0 0 6.33404 -19.0771 8.16716 -3.68053 19.7052 -0.211895 4.2939 21.2373 -1.894 -11.1953 0 0 39.112 51.4957 33.9916 -29.6607 0 0 -11.3479 -17.0537 28.0634 -23.3476 7.10543e-015 0 1.40066 -14.3059 0.718324 9.17543 1.42109e-014 -2.84217e-014 12.6548 -12.5081 1.25307 0 -39.1216 -1.42109e-014 -14.8175 35.5315 14.497 0 -35.3569 0 3.19009 -17.5799 13.284 -8.88178e-016 -5.96403 13.7631 5.46658e-016 7.95139e-016 -9.93923e-017 -9.17543 0 0 -14.5228 21.9033 11.5501 1.42109e-014 -39.1216 0 2.50656 18.5231 6.98768 0 -35.3569 0 7.68572 -17.2732 -13.0777 0 -5.96403 13.7631 -0 -4.77083e-015 -0 
